<?xml version="1.0" encoding="utf-8"?>
<!-- Generator: Adobe Illustrator 26.4.1, SVG Export Plug-In . SVG Version: 6.00 Build 0)  -->
<svg version="1.1" xmlns="http://www.w3.org/2000/svg" xmlns:xlink="http://www.w3.org/1999/xlink" x="0px" y="0px"
	 viewBox="0 0 302 58" style="enable-background:new 0 0 302 58;" xml:space="preserve">
<style type="text/css">
	.st0{fill:#C2D216;}
	.st1{fill:#FFFFFF;}
	.st2{fill:none;}
</style>
<g id="horizontal">
	<g>
		<rect x="1" y="34.3" class="st0" width="263.4" height="4.1"/>
		<g>
			<g>
				<path class="st1" d="M191.7,27.5c4.5,0,8.1-1.8,10.6-4v-9.3h-10.8v4h6.5v3.3c-1.6,1.2-3.7,1.9-6.1,1.9c-5.2,0-8.6-3.8-8.6-9.1
					v-0.1c0-4.9,3.6-9,8.2-9c3.2,0,5.2,1.1,7.1,2.7l2.8-3.4c-2.6-2.2-5.3-3.4-9.8-3.4c-7.7,0-13.1,6-13.1,13.1v0.1
					C178.5,21.8,183.7,27.5,191.7,27.5"/>
				<path class="st1" d="M220.9,10c0,2.6-2,4.2-5.2,4.2h-6.5V5.7h6.5C218.9,5.7,220.9,7.2,220.9,10L220.9,10z M225.4,9.7L225.4,9.7
					c0-2.3-0.8-4.2-2.1-5.6c-1.6-1.6-4.1-2.5-7.3-2.5h-11.3V27h4.5v-8.9h5.6l6.2,8.9h5.3l-6.9-9.6C222.9,16.4,225.4,13.9,225.4,9.7"
					/>
				<path class="st1" d="M249.6,14.4c0,4.9-3.5,8.9-8.6,8.9c-5,0-8.6-4.1-8.6-9v-0.1c0-4.9,3.5-9,8.6-9S249.6,9.4,249.6,14.4
					L249.6,14.4z M254.3,14.3L254.3,14.3c0-7.2-5.4-13.1-13.3-13.1c-7.8,0-13.3,6-13.3,13.1v0.1c0,7.2,5.4,13.1,13.3,13.1
					C248.8,27.5,254.3,21.5,254.3,14.3"/>
				<path class="st1" d="M267.5,27.4c6.6,0,10.9-3.8,10.9-11.4V1.6h-4.5v14.6c0,4.7-2.4,7-6.4,7c-4,0-6.4-2.5-6.4-7.2V1.6h-4.5v14.6
					C256.7,23.6,260.9,27.4,267.5,27.4"/>
				<path class="st1" d="M295.9,10.3c0,2.7-2.1,4.5-5.5,4.5h-5.2V5.7h5.2C293.8,5.7,295.9,7.2,295.9,10.3L295.9,10.3z M300.4,10.2
					L300.4,10.2c0-5.2-3.7-8.6-9.7-8.6h-10V27h4.5v-8.2h5C295.9,18.9,300.4,15.9,300.4,10.2"/>
				<rect x="191.5" y="14.2" class="st0" width="17.6" height="4"/>
			</g>
			<g>
				<polygon class="st1" points="17.3,1 13.1,1 1.7,27.1 6.4,27.1 9,20.8 10.7,16.8 15.1,6.4 19.6,16.8 21.3,20.8 23.9,27.1 
					28.7,27.1 				"/>
				<path class="st1" d="M31.2,1.2h10.2c6,0,9.8,3.4,9.8,8.7v0.1c0,5.8-4.7,8.8-10.4,8.8h-5.1v8.3h-4.5V1.2z M41.1,14.6
					c3.4,0,5.6-1.9,5.6-4.6V9.9c0-3-2.2-4.6-5.6-4.6h-5.3v9.3H41.1z"/>
				<path class="st1" d="M54,1.2h10.2c6,0,9.8,3.4,9.8,8.7v0.1c0,5.8-4.7,8.8-10.4,8.8h-5.1v8.3H54V1.2z M63.9,14.6
					c3.4,0,5.6-1.9,5.6-4.6V9.9c0-3-2.2-4.6-5.6-4.6h-5.3v9.3H63.9z"/>
				<path class="st1" d="M149.6,1.2h4.5v21.8h13.6v4.1h-18.2V1.2z"/>
				<rect x="78.2" y="14.6" class="st1" width="15" height="4.1"/>
				<polygon class="st1" points="88,1 83.8,1 72.4,27.1 77,27.1 79.7,20.8 81.4,16.8 85.8,6.4 90.3,16.8 91.9,20.8 94.6,27.1 
					99.4,27.1 				"/>
				<polyline class="st2" points="33.6,27.1 33.6,3.7 47.3,3.7 47.3,16 33.6,16 				"/>
				<polygon class="st0" points="35.8,18.8 5.3,18.8 7.2,14.6 35.8,14.6 				"/>
				<path class="st1" d="M126.4,1.1h19.2v4.1h-14.6v8.8h13v2h-13v7h14.8V27h-19.4V1.1z"/>
				<path class="st1" d="M101.4,1.1h11.5c3.3,0,5.8,1,7.5,2.6c1.4,1.4,2.1,3.3,2.1,5.6v0.1c0,4.3-2.6,6.8-6.2,7.8l7,9.8H118l-6.4-9
					h-0.1h-5.6v9h-4.5V1.1z M112.6,13.9c3.3,0,5.3-1.7,5.3-4.3V9.5c0-2.8-2-4.3-5.4-4.3h-6.6v8.7H112.6z"/>
				<rect x="105.9" y="13.9" class="st0" width="25" height="4.1"/>
				<rect x="131" y="13.9" class="st1" width="12.9" height="4.1"/>
			</g>
		</g>
		<g>
			<g>
				<path class="st1" d="M6.5,56.8H1v-8.6h5.5v1.4H2.7v2.2h3.6v1.3H2.7v2.3h3.8V56.8z"/>
				<path class="st1" d="M15.8,52.6l2.7,4.3h-2l-1.8-3h-0.1l-1.8,3h-1.9l2.7-4.3l-2.6-4.3h2l1.8,3.1h0.1l1.8-3.1h1.9L15.8,52.6z"/>
				<path class="st1" d="M24.5,53.1c0,1.6,0.7,2.5,1.9,2.5c1,0,1.7-0.7,1.7-1.6h1.6v0.2c0,1.7-1.4,2.9-3.4,2.9c-2.3,0-3.6-1.5-3.6-4
					v-1c0-2.5,1.3-4,3.6-4c2,0,3.4,1.2,3.4,3v0.2h-1.6c0-1-0.7-1.7-1.7-1.7c-1.2,0-1.9,0.9-1.9,2.5V53.1z"/>
				<path class="st1" d="M40.5,56.8H35v-8.6h5.5v1.4h-3.8v2.2h3.6v1.3h-3.6v2.3h3.8V56.8z"/>
				<path class="st1" d="M51.4,56.8h-5.5v-8.6h5.5v1.4h-3.8v2.2h3.6v1.3h-3.6v2.3h3.8V56.8z"/>
				<path class="st1" d="M59.9,48.3c2.6,0,3.8,1.6,3.8,4.3c0,2.7-1.3,4.3-3.8,4.3h-3.1v-8.6H59.9z M58.4,55.5h1.2
					c1.4,0,2.3-0.7,2.3-2.9c0-1.8-0.6-2.9-2.3-2.9h-1.2V55.5z"/>
				<path class="st1" d="M80.7,56.8h-5.5v-8.6h5.5v1.4h-3.8v2.2h3.6v1.3h-3.6v2.3h3.8V56.8z"/>
				<path class="st1" d="M90,52.6l2.7,4.3h-2l-1.8-3h-0.1l-1.8,3h-1.9l2.7-4.3l-2.6-4.3h2l1.8,3.1H89l1.8-3.1h1.9L90,52.6z"/>
				<path class="st1" d="M100.8,48.3c1.8,0,2.9,1.3,2.9,2.9c0,1.6-1.1,2.8-2.9,2.8H99v2.9h-1.7v-8.6H100.8z M99,52.6h1
					c1.2,0,1.9-0.3,1.9-1.5c0-1-0.6-1.5-1.5-1.5H99V52.6z"/>
				<path class="st1" d="M114.2,56.8h-5.5v-8.6h5.5v1.4h-3.8v2.2h3.6v1.3h-3.6v2.3h3.8V56.8z"/>
				<path class="st1" d="M120.9,53.1c0,1.6,0.7,2.5,1.9,2.5c1,0,1.7-0.7,1.7-1.6h1.6v0.2c0,1.7-1.4,2.9-3.4,2.9
					c-2.3,0-3.6-1.5-3.6-4v-1c0-2.5,1.3-4,3.6-4c2,0,3.4,1.2,3.4,3v0.2h-1.6c0-1-0.7-1.7-1.7-1.7c-1.2,0-1.9,0.9-1.9,2.5V53.1z"/>
				<path class="st1" d="M133,56.8v-7.2h-2.4v-1.4h6.6v1.4h-2.4v7.2H133z"/>
				<path class="st1" d="M141.1,56.8l2.9-8.6h2l2.9,8.6h-1.8l-0.7-2.2h-2.9l-0.7,2.2H141.1z M144.9,49.9l-1.1,3.5h2.2L144.9,49.9
					L144.9,49.9z"/>
				<path class="st1" d="M155.3,56.8v-7.2h-2.4v-1.4h6.6v1.4H157v7.2H155.3z"/>
				<path class="st1" d="M164.2,56.8v-8.6h1.7v8.6H164.2z"/>
				<path class="st1" d="M171.2,52c0-2.4,1.4-3.9,3.7-3.9c2.3,0,3.7,1.5,3.7,3.9v1.1c0,2.4-1.4,3.9-3.7,3.9s-3.7-1.5-3.7-3.9V52z
					 M172.9,53.1c0,1.7,0.8,2.5,2,2.5c1.1,0,2-0.8,2-2.5V52c0-1.7-0.8-2.5-2-2.5c-1.1,0-2,0.9-2,2.5V53.1z"/>
				<path class="st1" d="M183.9,56.8v-8.6h1.4l3.8,5.7h0.1v-5.7h1.6v8.6h-1.4l-3.8-5.7h-0.1v5.7H183.9z"/>
				<path class="st1" d="M197.4,54.4c0.1,0.7,0.7,1.3,1.8,1.3c1,0,1.6-0.5,1.6-1.2c0-0.6-0.4-0.9-1.3-1.1l-1.3-0.3
					c-1.2-0.3-2.2-0.9-2.2-2.4c0-1.7,1.4-2.6,3.2-2.6c1.8,0,3.2,1,3.2,2.5h-1.6c-0.1-0.6-0.6-1.2-1.6-1.2c-0.9,0-1.5,0.4-1.5,1.1
					c0,0.5,0.4,0.9,1.2,1l1.3,0.3c1.3,0.3,2.3,0.9,2.3,2.4c0,1.7-1.3,2.7-3.4,2.7c-2.5,0-3.3-1.4-3.3-2.6H197.4z"/>
				<path class="st1" d="M219.6,56.8h-5.5v-8.6h5.5v1.4h-3.8v2.2h3.6v1.3h-3.6v2.3h3.8V56.8z"/>
				<path class="st1" d="M226.9,56.8l-2.9-8.6h2l1.9,6.7h0.1l1.9-6.7h1.9l-2.9,8.6H226.9z"/>
				<path class="st1" d="M242.1,56.8h-5.5v-8.6h5.5v1.4h-3.8v2.2h3.6v1.3h-3.6v2.3h3.8V56.8z"/>
				<path class="st1" d="M253.9,51c0,1.4-0.9,2.2-1.6,2.4l1.7,3.5h-1.9l-1.5-3.2h-1.5v3.2h-1.7v-8.6h3.4
					C252.9,48.3,253.9,49.5,253.9,51z M250.6,52.4c1,0,1.5-0.5,1.5-1.4c0-0.9-0.6-1.4-1.5-1.4h-1.5v2.8H250.6z"/>
				<path class="st1" d="M261.1,56.8v-3.3l-2.9-5.3h1.9l1.8,3.6h0.1l1.8-3.6h1.8l-2.9,5.3v3.3H261.1z"/>
				<path class="st1" d="M273.4,48.3c2.6,0,3.8,1.6,3.8,4.3c0,2.7-1.3,4.3-3.8,4.3h-3.1v-8.6H273.4z M271.9,55.5h1.2
					c1.4,0,2.3-0.7,2.3-2.9c0-1.8-0.6-2.9-2.3-2.9h-1.2V55.5z"/>
				<path class="st1" d="M281.6,56.8l2.9-8.6h2l2.9,8.6h-1.8l-0.7-2.2H284l-0.7,2.2H281.6z M285.4,49.9l-1.1,3.5h2.2L285.4,49.9
					L285.4,49.9z"/>
				<path class="st1" d="M296,56.8v-3.3l-2.9-5.3h1.9l1.8,3.6h0.1l1.8-3.6h1.8l-2.9,5.3v3.3H296z"/>
			</g>
		</g>
		<g>
			<g>
				<path class="st1" d="M268.5,37.2c0,0.3,0.3,0.6,0.8,0.6c0.5,0,0.8-0.2,0.8-0.6c0-0.3-0.2-0.4-0.6-0.5l-0.6-0.1
					c-0.6-0.1-1-0.4-1-1.1c0-0.8,0.7-1.2,1.5-1.2c0.9,0,1.5,0.5,1.5,1.2h-0.8c0-0.3-0.3-0.6-0.8-0.6c-0.4,0-0.7,0.2-0.7,0.5
					c0,0.2,0.2,0.4,0.6,0.5l0.6,0.1c0.6,0.1,1.1,0.4,1.1,1.2c0,0.8-0.6,1.3-1.6,1.3c-1.2,0-1.6-0.7-1.6-1.2H268.5z"/>
				<path class="st1" d="M271.9,38.4v-4.1h0.8v4.1H271.9z"/>
				<path class="st1" d="M273.9,38.4v-4.1h0.7l1.8,2.7h0v-2.7h0.8v4.1h-0.7l-1.8-2.7h0v2.7H273.9z"/>
				<path class="st1" d="M279,36.6c0,0.8,0.3,1.2,0.9,1.2c0.5,0,0.8-0.3,0.8-0.8h0.8v0.1c0,0.8-0.7,1.4-1.6,1.4
					c-1.1,0-1.7-0.7-1.7-1.9v-0.5c0-1.2,0.6-1.9,1.7-1.9c0.9,0,1.6,0.6,1.6,1.4v0.1h-0.8c0-0.5-0.3-0.8-0.8-0.8
					c-0.6,0-0.9,0.4-0.9,1.2V36.6z"/>
				<path class="st1" d="M285.1,38.4h-2.6v-4.1h2.6V35h-1.8v1h1.7v0.6h-1.7v1.1h1.8V38.4z"/>
				<path class="st1" d="M288.5,38.4v-3.3h0c-0.3,0.2-0.7,0.4-0.9,0.6v-0.7c0.3-0.2,0.7-0.4,1-0.6h0.8v4.1H288.5z"/>
				<path class="st1" d="M291.1,37.3c0,0.2,0.3,0.5,0.6,0.5c0.6,0,0.9-0.7,0.8-1.4h0c-0.1,0.3-0.4,0.6-1,0.6c-0.7,0-1.3-0.5-1.3-1.3
					c0-0.9,0.7-1.4,1.5-1.4c1,0,1.6,0.7,1.6,2.1c0,1.3-0.6,2.2-1.6,2.2c-0.9,0-1.4-0.6-1.4-1.1H291.1z M291.8,34.9
					c-0.4,0-0.7,0.3-0.7,0.8c0,0.5,0.3,0.8,0.7,0.8c0.4,0,0.7-0.3,0.7-0.7C292.5,35.1,292.2,34.9,291.8,34.9z"/>
				<path class="st1" d="M294.9,37.3c0,0.2,0.3,0.5,0.6,0.5c0.6,0,0.9-0.7,0.8-1.4h0c-0.1,0.3-0.4,0.6-1,0.6c-0.7,0-1.3-0.5-1.3-1.3
					c0-0.9,0.7-1.4,1.5-1.4c1,0,1.6,0.7,1.6,2.1c0,1.3-0.6,2.2-1.6,2.2c-0.9,0-1.4-0.6-1.4-1.1H294.9z M295.6,34.9
					c-0.4,0-0.7,0.3-0.7,0.8c0,0.5,0.3,0.8,0.7,0.8c0.4,0,0.7-0.3,0.7-0.7C296.3,35.1,296,34.9,295.6,34.9z"/>
				<path class="st1" d="M300.1,35.3c0-0.2-0.2-0.5-0.6-0.5c-0.5,0-0.8,0.6-0.8,1.4h0c0.1-0.3,0.4-0.6,1-0.6c0.7,0,1.3,0.5,1.3,1.3
					c0,0.9-0.7,1.4-1.5,1.4c-0.5,0-0.9-0.2-1.2-0.5c-0.3-0.3-0.4-0.8-0.4-1.5c0-1.4,0.6-2.2,1.6-2.2c0.9,0,1.3,0.6,1.3,1.1H300.1z
					 M299.5,37.8c0.4,0,0.7-0.3,0.7-0.8c0-0.5-0.3-0.8-0.7-0.8c-0.4,0-0.7,0.3-0.7,0.8C298.8,37.6,299.1,37.8,299.5,37.8z"/>
			</g>
		</g>
	</g>
</g>
<g id="stacked">
</g>
</svg>
